<?xml version="1.0" standalone="no"?>
<!DOCTYPE svg PUBLIC "-//W3C//DTD SVG 20010904//EN"
 "http://www.w3.org/TR/2001/REC-SVG-20010904/DTD/svg10.dtd">
<svg version="1.0" xmlns="http://www.w3.org/2000/svg"
 width="270.000000pt" height="360.000000pt" viewBox="0 0 270.000000 360.000000"
 preserveAspectRatio="xMidYMid meet">

<g transform="translate(0.000000,360.000000) scale(0.100000,-0.100000)"
fill="#000000" stroke="none">
<path d="M1340 3348 c-25 -5 -65 -9 -90 -9 -34 1 -54 -5 -80 -24 -19 -14 -40
-25 -47 -25 -7 0 -13 -5 -13 -10 0 -6 -9 -14 -19 -18 -35 -13 -214 -234 -217
-267 0 -5 -6 -28 -12 -50 -7 -22 -12 -52 -12 -67 0 -16 -4 -28 -8 -28 -5 0 -9
-6 -10 -12 -1 -7 -7 -44 -13 -83 -14 -90 -14 -132 1 -150 9 -11 8 -19 -4 -37
-21 -30 -22 -82 -1 -74 12 4 15 -3 15 -34 0 -21 6 -51 14 -67 8 -15 19 -39 26
-53 6 -14 8 -17 6 -7 -3 9 -2 17 2 17 5 0 13 -22 18 -50 6 -27 7 -50 2 -50 -5
0 -4 -9 2 -19 5 -11 10 -28 9 -38 0 -15 -2 -14 -9 5 -5 12 -15 22 -22 21 -10
0 -10 -2 0 -6 13 -5 7 -23 -9 -23 -11 0 -7 59 5 78 3 6 -5 23 -19 39 -21 22
-24 23 -16 6 6 -12 16 -25 21 -28 6 -4 7 -11 4 -17 -11 -17 -54 68 -62 123
l-7 54 -22 -35 c-27 -44 -78 -91 -89 -82 -4 4 -4 1 0 -5 4 -7 14 -13 21 -13
11 0 12 -6 5 -26 -6 -14 -7 -30 -4 -35 3 -6 1 -15 -4 -22 -10 -13 -24 -64 -29
-107 -8 -72 -17 -100 -38 -120 -13 -12 -21 -28 -18 -36 3 -8 0 -14 -6 -14 -6
0 -8 -7 -4 -17 4 -11 3 -14 -5 -9 -8 4 -12 0 -13 -11 -1 -28 -44 -108 -57
-105 -7 1 -12 -5 -12 -13 0 -8 -4 -15 -10 -15 -5 0 -13 -12 -16 -27 -4 -15
-13 -38 -20 -52 -8 -14 -14 -42 -14 -60 0 -24 -9 -45 -27 -65 l-28 -31 27 24
c29 25 43 23 51 -9 3 -13 1 -18 -6 -13 -7 4 -8 0 -4 -11 4 -10 7 -22 7 -27 0
-6 5 -7 10 -4 6 4 10 -5 8 -24 -1 -16 -6 -27 -11 -24 -4 3 -6 12 -2 20 4 12 3
13 -8 5 -8 -7 -18 -8 -23 -4 -5 4 0 -4 11 -18 16 -19 16 -22 3 -11 -15 11 -22
11 -45 -5 -16 -10 -32 -17 -36 -16 -11 3 -70 -28 -79 -42 -4 -6 -2 -14 5 -19
8 -5 5 -7 -7 -5 -21 3 -75 -64 -74 -92 0 -8 -3 -24 -7 -34 -6 -13 -5 -17 3
-13 6 4 13 21 17 37 8 36 69 105 85 95 6 -3 7 -11 4 -17 -5 -7 -2 -8 5 -4 9 6
8 12 -4 26 -9 10 -12 20 -8 23 11 7 35 -7 34 -19 -1 -5 5 -9 12 -9 6 0 11 -8
11 -17 -1 -14 2 -15 16 -8 32 17 45 11 22 -10 -30 -28 -28 -34 5 -14 23 13 22
11 -7 -15 -36 -33 -64 -40 -74 -18 -3 6 -4 3 -1 -9 3 -13 0 -21 -8 -21 -7 0
-43 -15 -80 -33 -94 -46 -190 -157 -229 -262 l-28 -75 0 -436 0 -437 499 0
c390 0 501 3 505 13 5 9 7 9 12 0 4 -10 43 -13 145 -13 117 0 139 2 139 15 0
8 5 15 10 15 6 0 10 -7 10 -15 0 -13 22 -15 134 -15 98 0 136 3 140 13 5 9 7
9 12 0 4 -10 124 -13 550 -13 l544 0 0 566 c0 370 -3 563 -10 559 -5 -3 -7 0
-4 8 9 25 -165 147 -211 147 -8 0 -20 9 -27 20 -7 11 -17 20 -22 20 -4 0 -3
-7 4 -15 10 -12 10 -15 -4 -15 -9 0 -22 16 -31 36 -8 19 -19 33 -24 30 -5 -4
-13 -1 -17 5 -4 8 -3 9 4 5 7 -4 12 -5 12 -3 0 15 -56 126 -73 144 -11 13 -18
25 -15 29 6 6 88 -103 88 -118 0 -4 4 -8 10 -8 13 0 -42 89 -74 120 -15 13
-26 29 -26 36 0 7 -12 22 -27 34 -15 11 -28 28 -29 37 -2 9 -8 21 -14 27 -8 8
-9 6 -4 -8 5 -13 4 -17 -4 -12 -8 5 -10 2 -6 -8 10 -26 -3 -18 -27 15 -21 30
-22 42 -25 259 -2 184 -6 234 -18 259 -19 36 -20 45 -3 35 6 -5 -1 6 -18 24
-16 18 -29 35 -27 38 2 3 -5 12 -15 21 -17 13 -16 14 10 8 37 -7 34 2 -5 18
-18 8 -40 22 -48 33 -14 18 -14 18 3 5 15 -12 17 -12 11 3 -3 9 -10 16 -16 16
-5 0 -6 5 -2 12 4 7 3 8 -4 4 -6 -4 -14 -22 -18 -41 -3 -18 -21 -51 -38 -72
-18 -21 -36 -50 -40 -65 -8 -33 -43 -55 -59 -39 -8 8 -19 -13 -39 -76 -48
-147 -139 -236 -252 -248 -25 -2 -55 -9 -66 -15 -28 -15 -160 -3 -236 21 -33
11 -75 21 -92 22 -18 1 -32 5 -32 10 0 4 -6 7 -13 7 -8 0 -34 19 -58 42 -24
24 -48 41 -53 40 -5 -2 -6 5 -2 14 4 12 2 15 -9 10 -10 -3 -15 1 -15 13 0 11
-4 21 -10 23 -5 2 -11 12 -13 23 -2 11 -10 34 -16 50 -7 17 -14 53 -16 80 -2
28 -6 58 -10 67 -4 9 -4 22 0 28 3 5 2 10 -4 10 -15 0 -24 140 -16 253 6 94 9
105 37 137 17 19 27 28 23 20 -7 -13 -6 -13 8 0 20 18 50 90 39 90 -5 0 -9 7
-9 15 0 8 4 12 9 9 7 -5 10 4 7 22 -1 9 53 64 64 64 5 0 3 -8 -4 -17 -11 -15
-10 -15 8 1 13 10 20 22 18 26 -3 4 19 28 48 53 50 42 106 67 152 66 31 0 200
9 200 11 0 1 13 4 28 6 21 2 36 -4 54 -24 14 -15 30 -26 35 -24 5 1 7 -1 5 -5
-3 -5 6 -24 19 -43 13 -19 24 -31 24 -26 0 4 20 -12 44 -36 27 -25 41 -47 36
-52 -5 -5 3 -23 20 -44 15 -19 26 -40 24 -47 -3 -7 1 -19 9 -27 55 -55 88
-239 66 -363 -18 -100 -18 -163 -1 -178 10 -7 13 -8 9 -1 -4 7 -9 30 -12 53
-5 37 -2 44 31 76 20 19 31 35 25 35 -7 0 -7 8 -1 26 6 14 10 40 10 59 0 25 5
35 20 40 11 3 20 13 20 22 0 13 3 13 15 3 13 -10 15 -9 15 9 0 12 -6 24 -14
27 -8 3 -17 13 -21 22 -3 9 -3 13 1 10 4 -4 15 -3 25 3 16 8 19 6 20 -13 0
-23 0 -23 10 2 6 14 9 39 7 57 -2 17 -1 30 3 27 16 -10 -3 121 -23 160 -8 15
-12 16 -19 5 -8 -12 -9 -11 -8 1 2 16 -1 25 -32 99 -11 24 -21 53 -23 65 -2
12 -14 38 -26 59 -16 27 -18 37 -8 37 7 0 1 10 -14 21 -16 11 -28 29 -28 39 0
31 -34 79 -62 89 -16 6 -28 16 -28 23 0 10 -2 10 -9 -1 -7 -11 -10 -9 -15 7
-8 23 -60 65 -69 56 -3 -3 -16 1 -29 10 -12 9 -32 16 -43 16 -12 0 -25 4 -30
9 -19 19 -123 29 -164 16 -16 -5 -21 -4 -17 4 4 6 6 10 4 10 -2 -1 -23 -6 -48
-11z m-499 -791 c-1 -4 -1 -15 -1 -24 0 -15 -2 -16 -10 -3 -13 20 -13 43 1 38
6 -2 10 -7 10 -11z m1056 -219 c-3 -8 -6 -5 -6 6 -1 11 2 17 5 13 3 -3 4 -12
1 -19z m209 -153 c13 -27 24 -59 23 -70 0 -14 -4 -11 -12 11 -7 17 -18 29 -24
27 -7 -3 -13 -1 -14 4 0 4 -2 15 -4 23 -3 8 -6 22 -8 30 -1 8 -9 26 -16 40
l-14 25 23 -20 c13 -11 33 -42 46 -70z m4 -94 c-1 -10 -6 -7 -15 9 -19 33 -18
50 0 26 8 -11 15 -27 15 -35z m-1399 12 c-12 -20 -14 -14 -5 12 4 9 9 14 11
11 3 -2 0 -13 -6 -23z m1416 -50 c-3 -10 -5 -4 -5 12 0 17 2 24 5 18 2 -7 2
-21 0 -30z m-404 -168 c-3 -9 -8 -14 -10 -11 -3 3 -2 9 2 15 9 16 15 13 8 -4z
m-42 -48 c-14 -10 -19 -17 -11 -16 8 1 20 1 25 0 6 -1 10 -55 10 -141 l0 -140
-50 -19 c-110 -43 -237 -52 -425 -31 -56 7 -114 10 -131 6 -35 -7 -38 9 -10
56 16 26 19 43 14 95 -6 60 -5 63 16 63 14 0 21 6 21 18 0 10 7 19 15 19 8 0
15 -4 15 -9 0 -5 5 -6 10 -3 6 3 10 2 10 -3 0 -5 16 -22 36 -37 27 -20 38 -24
44 -15 5 8 16 9 30 5 19 -6 22 -4 17 9 -5 13 1 16 39 16 70 0 154 28 197 66
20 19 41 34 45 34 5 0 24 14 42 30 25 22 36 27 42 18 5 -9 8 -4 9 12 0 23 1
23 8 5 6 -15 2 -24 -18 -38z m-551 -91 c0 -3 -4 -8 -10 -11 -5 -3 -10 -1 -10
4 0 6 5 11 10 11 6 0 10 -2 10 -4z m-603 -61 c-1 -22 -4 -30 -9 -22 -6 12 -1
57 7 57 2 0 3 -16 2 -35z m36 20 c-3 -9 -8 -14 -10 -11 -3 3 -2 9 2 15 9 16
15 13 8 -4z m141 -17 c-4 -18 -7 -38 -7 -43 0 -6 -8 -12 -16 -12 -13 -1 -16 7
-13 37 3 30 7 37 20 33 10 -4 13 -2 8 5 -4 7 -2 12 4 12 8 0 9 -11 4 -32z m37
-79 c-3 -16 -9 -29 -13 -27 -4 2 -13 -6 -21 -16 -13 -18 -14 -17 -9 12 2 18 8
29 13 26 8 -5 13 13 12 44 -1 9 3 10 12 2 8 -6 10 -21 6 -41z m176 19 c-3 -8
-6 -5 -6 6 -1 11 2 17 5 13 3 -3 4 -12 1 -19z m-14 -43 c-3 -9 -8 -14 -10 -11
-3 3 -2 9 2 15 9 16 15 13 8 -4z m-373 -47 c0 -16 -3 -19 -11 -11 -6 6 -8 16
-5 22 11 17 16 13 16 -11z m112 -20 c-3 -14 -2 -19 7 -14 6 4 4 -9 -6 -30 -13
-26 -19 -32 -21 -19 -5 25 7 85 18 85 4 0 6 -10 2 -22z m348 7 c0 -2 -10 -10
-22 -16 -21 -11 -22 -11 -9 4 13 16 31 23 31 12z m-259 -82 c-5 -10 -17 -27
-26 -38 -16 -19 -17 -19 -3 5 26 46 29 50 34 50 3 0 0 -8 -5 -17z m-283 -21
c-11 -14 -10 -15 6 -9 12 5 8 -3 -12 -21 -31 -29 -84 -40 -75 -15 6 16 16 16
31 1 11 -11 13 -9 11 8 0 4 5 11 13 15 14 9 -34 5 -67 -6 -14 -4 -12 -2 5 8
14 9 27 14 30 12 3 -2 17 5 30 15 28 21 47 16 28 -8z m7 -42 c-3 -5 -11 -10
-16 -10 -6 0 -7 5 -4 10 3 6 11 10 16 10 6 0 7 -4 4 -10z m1935 -60 c0 -5 -2
-10 -4 -10 -3 0 -8 5 -11 10 -3 6 -1 10 4 10 6 0 11 -4 11 -10z m-451 -127
c13 -43 26 -83 28 -90 6 -16 -96 -89 -195 -139 -127 -64 -245 -89 -417 -88
-215 1 -331 37 -462 144 l-62 50 15 35 c7 19 14 48 14 65 0 18 4 29 10 25 6
-3 10 1 10 9 0 24 43 29 130 16 128 -20 404 -19 470 2 30 10 82 21 115 24 153
16 204 21 260 22 l60 2 24 -77z m-1295 -36 c3 -12 5 -38 5 -57 0 -29 -2 -31
-9 -15 -8 19 -9 19 -9 -2 -1 -13 -6 -23 -12 -23 -11 0 -3 37 12 56 6 8 4 14
-6 18 -8 3 -15 11 -15 18 0 9 3 8 10 -2 6 -9 10 -10 10 -3 0 6 -4 15 -10 18
-15 9 -12 25 4 19 8 -3 17 -15 20 -27z m1478 -118 c6 -4 7 -16 3 -30 -7 -21
-9 -20 -26 16 -20 41 -27 114 -9 85 8 -12 10 -8 12 15 1 17 3 5 5 -25 3 -30 9
-57 15 -61z m57 85 c9 6 16 -7 9 -17 -2 -2 2 -10 9 -18 9 -11 9 -23 0 -52 -14
-45 -27 -48 -27 -7 0 32 -16 41 -23 13 -2 -10 -3 -5 -1 11 2 16 4 43 4 60 0
21 3 27 9 17 5 -7 14 -10 20 -7z m-1589 -48 c0 -13 3 -33 6 -43 4 -13 3 -15
-4 -4 -8 11 -10 11 -15 0 -3 -8 -5 5 -4 28 2 45 17 61 17 19z m1643 2 c-4 -19
-3 -20 6 -8 10 13 11 13 12 0 1 -8 3 -19 4 -25 2 -5 4 -23 5 -40 2 -30 2 -30
10 -5 4 14 6 36 3 50 -4 24 -4 24 12 -3 9 -16 14 -35 11 -43 -3 -9 -1 -12 4
-9 6 3 10 2 10 -3 0 -6 -7 -13 -16 -16 -11 -4 -15 -15 -12 -36 2 -16 1 -27 -4
-24 -4 3 -8 14 -8 25 0 10 -4 19 -9 19 -5 0 -7 -21 -5 -47 l4 -48 -14 59 c-8
33 -12 66 -9 73 3 7 2 13 -1 13 -4 0 -11 -10 -16 -22 -7 -19 -9 -20 -10 -5 -5
49 7 117 20 117 5 0 6 -10 3 -22z m-100 -13 c-3 -9 -8 -14 -10 -11 -3 3 -2 9
2 15 9 16 15 13 8 -4z m203 -21 c2 -16 9 -53 14 -83 6 -30 8 -56 6 -58 -7 -7
-24 63 -32 135 -6 50 3 55 12 6z m95 -1 c-12 -20 -14 -14 -5 12 4 9 9 14 11
11 3 -2 0 -13 -6 -23z m-2121 12 c0 -2 -10 -9 -22 -15 -22 -11 -22 -10 -4 4
21 17 26 19 26 11z m-60 -19 c0 -3 -4 -8 -10 -11 -5 -3 -10 -1 -10 4 0 6 5 11
10 11 6 0 10 -2 10 -4z m1790 -26 c0 -5 -4 -10 -10 -10 -5 0 -10 5 -10 10 0 6
5 10 10 10 6 0 10 -4 10 -10z m280 -67 c0 -10 3 -29 6 -43 4 -18 3 -21 -4 -10
-15 25 -23 70 -12 70 5 0 10 -8 10 -17z m-1970 -39 c0 -2 -9 0 -20 6 -11 6
-20 13 -20 16 0 2 9 0 20 -6 11 -6 20 -13 20 -16z m1620 -4 c0 -5 -2 -10 -4
-10 -3 0 -8 5 -11 10 -3 6 -1 10 4 10 6 0 11 -4 11 -10z m-1145 -10 c3 -5 1
-10 -4 -10 -6 0 -11 5 -11 10 0 6 2 10 4 10 3 0 8 -4 11 -10z m-85 -10 c0 -5
-5 -10 -11 -10 -5 0 -7 5 -4 10 3 6 8 10 11 10 2 0 4 -4 4 -10z m1690 -17 c0
-20 -3 -24 -11 -16 -7 7 -9 19 -6 27 10 24 17 19 17 -11z m-510 7 c0 -5 -4
-10 -10 -10 -5 0 -10 5 -10 10 0 6 5 10 10 10 6 0 10 -4 10 -10z m90 1 c0 -6
-4 -13 -10 -16 -5 -3 -10 1 -10 9 0 9 5 16 10 16 6 0 10 -4 10 -9z m357 -23
c-3 -8 -6 -5 -6 6 -1 11 2 17 5 13 3 -3 4 -12 1 -19z m-1577 2 c0 -5 -4 -10
-10 -10 -5 0 -10 5 -10 10 0 6 5 10 10 10 6 0 10 -4 10 -10z m-549 -13 c-6 -8
-7 -18 -3 -22 4 -5 1 -5 -6 -1 -10 6 -10 11 -1 22 6 8 14 14 16 14 3 0 0 -6
-6 -13z m1719 3 c0 -5 -4 -10 -10 -10 -5 0 -10 5 -10 10 0 6 5 10 10 10 6 0
10 -4 10 -10z m-1080 -50 c0 -5 -4 -10 -10 -10 -5 0 -10 5 -10 10 0 6 5 10 10
10 6 0 10 -4 10 -10z m100 0 c0 -5 -7 -10 -15 -10 -8 0 -15 5 -15 10 0 6 7 10
15 10 8 0 15 -4 15 -10z m190 -10 c0 -5 -4 -10 -9 -10 -6 0 -13 5 -16 10 -3 6
1 10 9 10 9 0 16 -4 16 -10z m285 0 c3 -5 -1 -10 -10 -10 -9 0 -13 5 -10 10 3
6 8 10 10 10 2 0 7 -4 10 -10z m100 0 c3 -5 -1 -10 -10 -10 -9 0 -13 5 -10 10
3 6 8 10 10 10 2 0 7 -4 10 -10z m195 0 c0 -5 -5 -10 -11 -10 -5 0 -7 5 -4 10
3 6 8 10 11 10 2 0 4 -4 4 -10z m-1537 -25 c-3 -9 -8 -14 -10 -11 -3 3 -2 9 2
15 9 16 15 13 8 -4z m707 5 c0 -5 -4 -10 -10 -10 -5 0 -10 5 -10 10 0 6 5 10
10 10 6 0 10 -4 10 -10z m290 -10 c0 -5 -4 -10 -10 -10 -5 0 -10 5 -10 10 0 6
5 10 10 10 6 0 10 -4 10 -10z m290 0 c0 -5 -5 -10 -11 -10 -5 0 -7 5 -4 10 3
6 8 10 11 10 2 0 4 -4 4 -10z m300 0 c0 -5 -4 -10 -10 -10 -5 0 -10 5 -10 10
0 6 5 10 10 10 6 0 10 -4 10 -10z m-1536 -47 c-4 -22 -3 -25 5 -13 22 31 10 0
-13 -34 -18 -27 -25 -32 -30 -20 -3 8 -2 12 4 9 6 -3 10 1 10 9 0 9 4 16 8 16
5 0 7 14 4 30 -3 18 0 30 7 30 7 0 9 -10 5 -27z m516 23 c0 -3 -4 -8 -10 -11
-5 -3 -10 -1 -10 4 0 6 5 11 10 11 6 0 10 -2 10 -4z m865 -6 c3 -5 -1 -10 -9
-10 -9 0 -16 5 -16 10 0 6 4 10 9 10 6 0 13 -4 16 -10z m-285 -4 c0 -11 -19
-15 -25 -6 -3 5 1 10 9 10 9 0 16 -2 16 -4z m578 -15 c3 -8 -1 -12 -9 -9 -7 2
-15 10 -17 17 -3 8 1 12 9 9 7 -2 15 -10 17 -17z m-831 -17 c-9 -9 -28 6 -21
18 4 6 10 6 17 -1 6 -6 8 -13 4 -17z m-746 -11 c-12 -20 -14 -14 -5 12 4 9 9
14 11 11 3 -2 0 -13 -6 -23z m365 0 c-10 -10 -19 5 -10 18 6 11 8 11 12 0 2
-7 1 -15 -2 -18z m94 17 c0 -5 -4 -10 -10 -10 -5 0 -10 5 -10 10 0 6 5 10 10
10 6 0 10 -4 10 -10z m195 0 c-3 -5 -10 -10 -16 -10 -5 0 -9 5 -9 10 0 6 7 10
16 10 8 0 12 -4 9 -10z m277 -12 c-7 -7 -12 -8 -12 -2 0 14 12 26 19 19 2 -3
-1 -11 -7 -17z m308 14 c0 -13 -12 -22 -22 -16 -10 6 -1 24 13 24 5 0 9 -4 9
-8z m100 -8 c0 -2 -7 -4 -15 -4 -8 0 -15 4 -15 10 0 5 7 7 15 4 8 -4 15 -8 15
-10z m-1395 -16 c-6 -19 -5 -21 6 -10 17 15 32 16 27 0 -5 -15 -56 -19 -65 -5
-3 6 -1 7 5 3 6 -3 13 3 17 14 3 11 9 20 11 20 3 0 2 -10 -1 -22z m1095 12 c0
-5 -4 -10 -10 -10 -5 0 -10 5 -10 10 0 6 5 10 10 10 6 0 10 -4 10 -10z m490 2
c0 -13 -12 -22 -22 -16 -10 6 -1 24 13 24 5 0 9 -4 9 -8z m91 -15 c-1 -12 -15
-9 -19 4 -3 6 1 10 8 8 6 -3 11 -8 11 -12z m-1211 -18 c0 -5 -4 -9 -10 -9 -5
0 -10 7 -10 16 0 8 5 12 10 9 6 -3 10 -10 10 -16z m285 11 c3 -5 -1 -10 -10
-10 -9 0 -13 5 -10 10 3 6 8 10 10 10 2 0 7 -4 10 -10z m295 -10 c0 -5 -7 -10
-15 -10 -8 0 -15 5 -15 10 0 6 7 10 15 10 8 0 15 -4 15 -10z m585 -10 c3 -5
-1 -10 -10 -10 -9 0 -13 5 -10 10 3 6 8 10 10 10 2 0 7 -4 10 -10z m-1025 -10
c0 -5 -7 -10 -16 -10 -8 0 -12 5 -9 10 3 6 10 10 16 10 5 0 9 -4 9 -10z m-602
-20 c-7 -10 -14 -17 -17 -15 -4 4 18 35 25 35 2 0 -1 -9 -8 -20z m887 10 c3
-5 -1 -10 -9 -10 -9 0 -16 5 -16 10 0 6 4 10 9 10 6 0 13 -4 16 -10z m295 -10
c0 -5 -4 -10 -10 -10 -5 0 -10 5 -10 10 0 6 5 10 10 10 6 0 10 -4 10 -10z
m-635 -20 c3 -5 2 -10 -4 -10 -5 0 -13 5 -16 10 -3 6 -2 10 4 10 5 0 13 -4 16
-10z m100 0 c-3 -5 -10 -10 -16 -10 -5 0 -9 5 -9 10 0 6 7 10 16 10 8 0 12 -4
9 -10z m185 0 c0 -5 -5 -10 -11 -10 -5 0 -7 5 -4 10 3 6 8 10 11 10 2 0 4 -4
4 -10z m104 -11 c-3 -5 -10 -7 -15 -3 -5 3 -7 10 -3 15 3 5 10 7 15 3 5 -3 7
-10 3 -15z m191 11 c3 -5 1 -10 -4 -10 -6 0 -11 5 -11 10 0 6 2 10 4 10 3 0 8
-4 11 -10z m105 0 c0 -5 -7 -10 -16 -10 -8 0 -12 5 -9 10 3 6 10 10 16 10 5 0
9 -4 9 -10z m200 0 c0 -5 -7 -10 -16 -10 -8 0 -12 5 -9 10 3 6 10 10 16 10 5
0 9 -4 9 -10z m100 -10 c0 -5 -7 -10 -15 -10 -8 0 -15 5 -15 10 0 6 7 10 15
10 8 0 15 -4 15 -10z m-1423 -22 c-3 -8 -6 -5 -6 6 -1 11 2 17 5 13 3 -3 4
-12 1 -19z m483 2 c0 -5 -4 -10 -10 -10 -5 0 -10 5 -10 10 0 6 5 10 10 10 6 0
10 -4 10 -10z m290 -10 c0 -5 -4 -10 -10 -10 -5 0 -10 5 -10 10 0 6 5 10 10
10 6 0 10 -4 10 -10z m300 0 c0 -5 -7 -10 -15 -10 -8 0 -15 5 -15 10 0 6 7 10
15 10 8 0 15 -4 15 -10z m290 0 c0 -5 -4 -10 -10 -10 -5 0 -10 5 -10 10 0 6 5
10 10 10 6 0 10 -4 10 -10z m-1030 -28 c0 -13 -12 -22 -22 -16 -10 6 -1 24 13
24 5 0 9 -4 9 -8z m290 -2 c0 -5 -4 -10 -10 -10 -5 0 -10 5 -10 10 0 6 5 10
10 10 6 0 10 -4 10 -10z m300 2 c0 -13 -12 -22 -22 -16 -10 6 -1 24 13 24 5 0
9 -4 9 -8z m290 -2 c0 -5 -2 -10 -4 -10 -3 0 -8 5 -11 10 -3 6 -1 10 4 10 6 0
11 -4 11 -10z m308 -24 c3 -12 -1 -17 -10 -14 -7 3 -15 13 -16 22 -3 12 1 17
10 14 7 -3 15 -13 16 -22z m-1143 -5 c7 -12 -12 -24 -25 -16 -11 7 -4 25 10
25 5 0 11 -4 15 -9z m195 1 c0 -13 -12 -22 -22 -16 -10 6 -1 24 13 24 5 0 9
-4 9 -8z m591 -15 c-13 -13 -26 -3 -16 12 3 6 11 8 17 5 6 -4 6 -10 -1 -17z
m-491 3 c0 -5 -4 -10 -9 -10 -6 0 -13 5 -16 10 -3 6 1 10 9 10 9 0 16 -4 16
-10z m200 0 c0 -5 -7 -10 -15 -10 -8 0 -15 5 -15 10 0 6 7 10 15 10 8 0 15 -4
15 -10z m100 0 c0 -5 -7 -10 -15 -10 -8 0 -15 5 -15 10 0 6 7 10 15 10 8 0 15
-4 15 -10z m-690 -10 c0 -5 -7 -10 -16 -10 -8 0 -12 5 -9 10 3 6 10 10 16 10
5 0 9 -4 9 -10z m1190 -6 c0 -9 -5 -14 -12 -12 -18 6 -21 28 -4 28 9 0 16 -7
16 -16z m-1547 -17 c4 3 7 1 7 -5 0 -21 -19 -23 -29 -3 -15 27 -13 40 3 19 7
-10 16 -15 19 -11z m1645 5 c2 -7 -3 -12 -12 -12 -9 0 -16 7 -16 16 0 17 22
14 28 -4z m-953 -2 c3 -5 -1 -10 -9 -10 -9 0 -16 5 -16 10 0 6 4 10 9 10 6 0
13 -4 16 -10z m595 0 c0 -5 -4 -10 -10 -10 -5 0 -10 5 -10 10 0 6 5 10 10 10
6 0 10 -4 10 -10z m-890 -9 c0 -6 -4 -13 -10 -16 -5 -3 -10 1 -10 9 0 9 5 16
10 16 6 0 10 -4 10 -9z m590 -1 c0 -5 -4 -10 -10 -10 -5 0 -10 5 -10 10 0 6 5
10 10 10 6 0 10 -4 10 -10z m-450 -31 c0 -5 -7 -9 -15 -9 -15 0 -20 12 -9 23
8 8 24 -1 24 -14z m1058 9 c-6 -18 -28 -21 -28 -4 0 9 7 16 16 16 9 0 14 -5
12 -12z m-758 -13 c0 -8 -4 -15 -10 -15 -5 0 -10 7 -10 15 0 8 5 15 10 15 6 0
10 -7 10 -15z m305 5 c3 -5 2 -10 -4 -10 -5 0 -13 5 -16 10 -3 6 -2 10 4 10 5
0 13 -4 16 -10z m303 -8 c2 -7 -3 -12 -12 -12 -9 0 -16 7 -16 16 0 17 22 14
28 -4z m-1468 -12 c-6 -11 -13 -20 -16 -20 -2 0 0 9 6 20 6 11 13 20 16 20 2
0 0 -9 -6 -20z m604 -34 c-6 -16 -8 -17 -16 -2 -11 19 0 42 13 29 6 -6 7 -18
3 -27z m-94 8 c0 -17 -22 -14 -28 4 -2 7 3 12 12 12 9 0 16 -7 16 -16z m305 6
c3 -5 -3 -10 -14 -10 -12 0 -21 5 -21 10 0 6 6 10 14 10 8 0 18 -4 21 -10z
m100 0 c3 -5 -1 -10 -9 -10 -9 0 -16 5 -16 10 0 6 4 10 9 10 6 0 13 -4 16 -10z
m195 2 c0 -13 -12 -22 -22 -16 -10 6 -1 24 13 24 5 0 9 -4 9 -8z m305 -3 c10
-15 -1 -23 -20 -15 -9 3 -13 10 -10 16 8 13 22 13 30 -1z m105 -14 c0 -8 -7
-15 -15 -15 -8 0 -15 7 -15 15 0 8 7 15 15 15 8 0 15 -7 15 -15z m-962 -33 c2
-7 -3 -12 -12 -12 -9 0 -16 7 -16 16 0 17 22 14 28 -4z m302 3 c0 -8 -7 -15
-15 -15 -8 0 -15 7 -15 15 0 8 7 15 15 15 8 0 15 -7 15 -15z m300 0 c0 -8 -7
-15 -15 -15 -16 0 -20 12 -8 23 11 12 23 8 23 -8z m302 -10 c0 -5 -5 -11 -11
-13 -6 -2 -11 4 -11 13 0 9 5 15 11 13 6 -2 11 -8 11 -13z m-758 -30 c-7 -17
-20 -20 -28 -6 -7 10 3 21 20 21 8 0 11 -6 8 -15z m304 -3 c2 -7 -3 -12 -12
-12 -9 0 -16 7 -16 16 0 17 22 14 28 -4z m302 2 c0 -9 -5 -14 -12 -12 -18 6
-21 28 -4 28 9 0 16 -7 16 -16z m500 6 c0 -5 -4 -10 -10 -10 -5 0 -10 5 -10
10 0 6 5 10 10 10 6 0 10 -4 10 -10z m-1419 -33 c-8 -8 -11 -7 -11 4 0 20 13
34 18 19 3 -7 -1 -17 -7 -23z m261 -12 c0 -5 -5 -11 -11 -13 -6 -2 -11 4 -11
13 0 9 5 15 11 13 6 -2 11 -8 11 -13z m103 -5 c0 -22 -29 -18 -33 3 -3 14 1
18 15 15 10 -2 18 -10 18 -18z m203 2 c2 -7 -3 -12 -12 -12 -9 0 -16 7 -16 16
0 17 22 14 28 -4z m100 -6 c3 -12 -1 -17 -10 -14 -7 3 -15 13 -16 22 -3 12 1
17 10 14 7 -3 15 -13 16 -22z m202 10 c0 -8 -4 -17 -9 -21 -12 -7 -24 12 -16
25 9 15 25 12 25 -4z m-812 -27 c-16 -10 -33 5 -23 21 5 8 11 8 21 -1 12 -10
12 -14 2 -20z m913 16 c-1 -15 -24 -12 -29 3 -3 9 2 13 12 10 10 -1 17 -7 17
-13z m207 -23 c2 -7 -3 -12 -12 -12 -9 0 -16 7 -16 16 0 17 22 14 28 -4z
m-868 -18 c0 -9 -5 -14 -12 -12 -18 6 -21 28 -4 28 9 0 16 -7 16 -16z m304 1
c-7 -17 -20 -20 -28 -6 -7 10 3 21 20 21 8 0 11 -6 8 -15z m304 3 c-6 -18 -28
-21 -28 -4 0 9 7 16 16 16 9 0 14 -5 12 -12z m-908 -24 c0 -8 -4 -14 -10 -14
-5 0 -10 9 -10 21 0 11 5 17 10 14 6 -3 10 -13 10 -21z m450 -19 c0 -8 -7 -15
-15 -15 -16 0 -20 12 -8 23 11 12 23 8 23 -8z m306 4 c3 -6 2 -15 -2 -19 -12
-12 -38 5 -30 19 9 14 23 14 32 0z m462 -1 c-6 -18 -28 -21 -28 -4 0 9 7 16
16 16 9 0 14 -5 12 -12z m-1076 -13 c0 -5 -5 -11 -11 -13 -6 -2 -11 4 -11 13
0 9 5 15 11 13 6 -2 11 -8 11 -13z m918 -11 c0 -8 -7 -14 -15 -14 -15 0 -21
21 -9 33 10 9 24 -2 24 -19z m-660 -24 c0 -11 -4 -20 -9 -20 -14 0 -23 18 -16
30 10 17 25 11 25 -10z m100 0 c0 -11 -4 -20 -9 -20 -14 0 -23 18 -16 30 10
17 25 11 25 -10z m-300 -5 c0 -8 -7 -15 -15 -15 -8 0 -15 7 -15 15 0 8 7 15
15 15 8 0 15 -7 15 -15z m508 3 c-3 -7 -11 -13 -18 -13 -7 0 -15 6 -17 13 -3
7 4 12 17 12 13 0 20 -5 18 -12z m92 -3 c0 -8 -7 -15 -15 -15 -8 0 -15 7 -15
15 0 8 7 15 15 15 8 0 15 -7 15 -15z m-700 -10 c0 -8 -4 -15 -9 -15 -13 0 -22
16 -14 24 11 11 23 6 23 -9z m908 -3 c2 -7 -3 -12 -12 -12 -9 0 -16 7 -16 16
0 17 22 14 28 -4z m102 -7 c0 -8 -7 -15 -15 -15 -8 0 -15 7 -15 15 0 8 7 15
15 15 8 0 15 -7 15 -15z m-665 -25 c0 -7 -6 -15 -12 -17 -8 -3 -13 4 -13 17 0
13 5 20 13 18 6 -3 12 -11 12 -18z m301 -5 c1 -8 -4 -15 -12 -15 -14 0 -19 21
-7 33 8 9 16 1 19 -18z m-594 0 c0 -5 -5 -11 -11 -13 -6 -2 -11 4 -11 13 0 9
5 15 11 13 6 -2 11 -8 11 -13z m902 -4 c3 -5 -1 -14 -8 -20 -16 -13 -32 2 -21
19 8 12 22 13 29 1z"/>
<path d="M1205 1165 c22 -14 45 -25 50 -25 6 0 -10 11 -34 25 -56 32 -68 32
-16 0z"/>
<path d="M1448 1123 c7 -3 16 -2 19 1 4 3 -2 6 -13 5 -11 0 -14 -3 -6 -6z"/>
<path d="M1388 1113 c7 -3 16 -2 19 1 4 3 -2 6 -13 5 -11 0 -14 -3 -6 -6z"/>
<path d="M1942 2955 c1 -10 9 -20 16 -21 7 -1 8 0 2 3 -5 2 -8 9 -5 13 3 5 0
12 -6 15 -7 5 -10 1 -7 -10z"/>
<path d="M1670 2876 c0 -3 14 -14 31 -27 23 -16 33 -19 42 -10 8 8 6 11 -10
11 -11 0 -26 7 -33 15 -12 14 -30 21 -30 11z"/>
<path d="M1027 2690 c-9 -6 -24 -25 -33 -41 l-15 -31 29 22 c16 12 40 22 53
22 30 0 141 -30 117 -31 -10 -1 -18 -5 -18 -10 0 -5 -14 -11 -31 -15 -44 -9
-110 -57 -107 -79 2 -10 8 -18 13 -19 6 -1 17 -8 25 -16 10 -10 15 -11 18 -3
3 8 8 9 16 2 20 -17 98 -8 110 12 8 13 7 20 -4 27 -12 8 -11 10 6 10 11 0 29
-9 39 -20 20 -22 43 -16 24 7 -23 27 -91 55 -125 51 -20 -2 -30 0 -25 5 21 21
80 11 125 -21 34 -24 45 -29 49 -18 3 8 -2 20 -11 28 -13 11 -15 11 -7 -2 6
-12 6 -13 -6 -2 -12 11 -12 14 1 22 13 8 12 11 -5 24 -11 9 -14 16 -7 16 14 0
17 29 2 31 -19 3 -25 5 -50 19 -32 17 -159 24 -183 10z m73 -124 c0 -2 -7 -7
-16 -10 -8 -3 -12 -2 -9 4 6 10 25 14 25 6z m32 -46 c5 -32 1 -35 -21 -21 -10
7 -11 13 -2 30 15 28 18 27 23 -9z"/>
<path d="M1610 2680 c-19 -11 -42 -19 -50 -19 -10 0 -8 3 5 9 18 8 18 9 2 9
-10 1 -20 -5 -23 -13 -3 -8 -15 -11 -31 -8 -24 4 -47 -13 -38 -29 5 -6 127 13
180 29 37 11 68 7 101 -14 33 -22 41 -11 10 14 -14 10 -22 22 -19 26 7 7 5 7
-57 11 -30 2 -57 -3 -80 -15z m115 0 c3 -6 -1 -7 -9 -4 -18 7 -21 14 -7 14 6
0 13 -4 16 -10z"/>
<path d="M1390 2650 c0 -5 5 -10 10 -10 6 0 10 5 10 10 0 6 -4 10 -10 10 -5 0
-10 -4 -10 -10z"/>
<path d="M1543 2608 c-13 -6 -23 -15 -23 -21 0 -5 8 -3 18 4 15 13 16 12 3 -3
-7 -10 -21 -18 -30 -18 -11 0 -17 -8 -17 -24 l0 -23 45 28 c55 35 109 38 160
7 l36 -21 -20 22 c-19 19 -116 62 -140 60 -5 0 -20 -5 -32 -11z"/>
<path d="M1615 2564 c-5 -1 -22 -5 -36 -8 -32 -7 -81 -45 -74 -57 4 -5 16 0
27 11 27 25 38 25 38 1 0 -11 -8 -22 -17 -24 -10 -3 -3 -5 15 -6 18 0 31 -5
28 -9 -4 -7 66 -1 104 9 15 4 45 29 39 32 -2 1 -14 10 -26 20 -21 18 -78 36
-98 31z m69 -47 c8 -13 7 -20 -4 -27 -28 -18 -40 -12 -30 14 5 13 6 27 2 31
-4 4 -1 6 7 3 8 -2 19 -12 25 -21z"/>
<path d="M1520 2475 c0 -10 29 -24 34 -17 3 6 -3 12 -14 15 -11 3 -20 4 -20 2z"/>
<path d="M2055 2340 c3 -5 8 -10 11 -10 2 0 4 5 4 10 0 6 -5 10 -11 10 -5 0
-7 -4 -4 -10z"/>
<path d="M2120 2327 c-20 -8 -22 -11 -7 -14 9 -3 17 -10 18 -16 0 -7 5 -1 10
12 12 30 10 31 -21 18z"/>
<path d="M1255 2250 c-8 -12 50 -41 69 -34 8 3 26 -2 39 -11 24 -15 26 -15 35
2 8 13 23 18 58 18 52 0 72 20 30 31 -32 8 -58 -6 -30 -17 11 -4 -6 -6 -38 -4
-31 2 -66 8 -77 14 -25 14 -78 14 -86 1z"/>
<path d="M1300 2139 c-14 -4 -45 -8 -70 -8 -47 -1 -96 -21 -53 -21 20 0 125
-80 106 -80 -4 0 -1 -5 7 -10 8 -5 46 -10 83 -10 51 0 72 4 87 18 17 16 15 17
-59 17 -60 0 -83 4 -106 20 -17 11 -37 23 -45 26 -8 4 21 5 65 4 44 -2 113 -4
153 -5 39 -1 72 -4 72 -6 0 -3 -12 -9 -26 -15 -15 -5 -24 -12 -21 -16 3 -3 25
4 47 16 23 12 46 19 51 16 5 -4 9 -2 9 4 0 6 -12 13 -27 17 -16 3 -48 12 -73
19 -53 16 -165 24 -200 14z"/>
<path d="M641 2064 c0 -11 3 -14 6 -6 3 7 2 16 -1 19 -3 4 -6 -2 -5 -13z"/>
<path d="M2150 1703 c0 -6 8 -17 18 -24 16 -13 16 -13 2 6 -8 11 -16 22 -17
24 -2 2 -3 0 -3 -6z"/>
<path d="M2180 1706 c0 -2 8 -10 18 -17 15 -13 16 -12 3 4 -13 16 -21 21 -21
13z"/>
<path d="M444 1498 l-19 -23 23 19 c21 18 27 26 19 26 -2 0 -12 -10 -23 -22z"/>
<path d="M2390 1391 c0 -6 4 -13 10 -16 6 -3 7 1 4 9 -7 18 -14 21 -14 7z"/>
<path d="M300 1325 c-7 -9 -11 -17 -9 -20 3 -2 10 5 17 15 14 24 10 26 -8 5z"/>
<path d="M330 1310 c-8 -5 -12 -12 -9 -15 4 -3 12 1 19 10 14 17 11 19 -10 5z"/>
<path d="M365 1299 c-11 -17 1 -21 15 -4 8 9 8 15 2 15 -6 0 -14 -5 -17 -11z"/>
<path d="M271 1247 c-13 -21 -12 -21 5 -5 10 10 16 20 13 22 -3 3 -11 -5 -18
-17z"/>
</g>
</svg>
